HIERARCHY
ROOT SpineBase
{
  OFFSET 0.000000 0.000000 0.000000
  CHANNELS 6 Xposition Yposition Zposition Zrotation Xrotation Yrotation
  JOINT SpineMid
  {
    OFFSET -0.000000 33.746204 0.000000
    CHANNELS 3 Zrotation Xrotation Yrotation
    JOINT SpineShoulder
    {
      OFFSET 0.081199 25.071479 -0.867035
      CHANNELS 3 Zrotation Xrotation Yrotation
      JOINT Neck
      {
        OFFSET 0.055325 8.303030 -0.646600
        CHANNELS 3 Zrotation Xrotation Yrotation
        JOINT Head
        {
          OFFSET -8.032108 12.796703 1.855827
          CHANNELS 3 Zrotation Xrotation Yrotation
          End Site
          {
            OFFSET 0 0 0
          }
        }
      }
      JOINT ShoulderLeft
      {
        OFFSET -8.908178 -3.940422 9.942783
        CHANNELS 3 Zrotation Xrotation Yrotation
        JOINT ElbowLeft
        {
          OFFSET -1.026459 -31.553840 -7.365908
          CHANNELS 3 Zrotation Xrotation Yrotation
          JOINT WristLeft
          {
            OFFSET -3.456940 -23.334087 -4.504452
            CHANNELS 3 Zrotation Xrotation Yrotation
            JOINT HandLeft
            {
              OFFSET 1.898169 -6.958209 3.112414
              CHANNELS 3 Zrotation Xrotation Yrotation
              JOINT HandTipLeft
              {
                OFFSET -0.423219 -7.411041 2.840242
                CHANNELS 3 Zrotation Xrotation Yrotation
                End Site
                {
                  OFFSET 0 0 0
                }
              }
              JOINT ThumbLeft
              {
                OFFSET -2.237604 -1.493058 3.067886
                CHANNELS 3 Zrotation Xrotation Yrotation
                End Site
                {
                  OFFSET 0 0 0
                }
              }
            }
          }
        }
      }
      JOINT ShoulderRight
      {
        OFFSET 10.970072 -3.430670 -11.614353
        CHANNELS 3 Zrotation Xrotation Yrotation
        JOINT ElbowRight
        {
          OFFSET 5.659301 -22.848213 -7.376840
          CHANNELS 3 Zrotation Xrotation Yrotation
          JOINT WristRight
          {
            OFFSET -3.041266 -24.659669 -7.488442
            CHANNELS 3 Zrotation Xrotation Yrotation
            JOINT HandRight
            {
              OFFSET -3.821383 -8.678850 0.514427
              CHANNELS 3 Zrotation Xrotation Yrotation
              JOINT HandTipRight
              {
                OFFSET -3.413458 -8.042708 -2.823092
                CHANNELS 3 Zrotation Xrotation Yrotation
                End Site
                {
                  OFFSET 0 0 0
                }
              }
              JOINT ThumbRight
              {
                OFFSET 2.963118 -2.265764 -5.096333
                CHANNELS 3 Zrotation Xrotation Yrotation
                End Site
                {
                  OFFSET 0 0 0
                }
              }
            }
          }
        }
      }
    }
  }
  JOINT HipLeft
  {
    OFFSET -3.815139 -0.419801 1.009762
    CHANNELS 3 Zrotation Xrotation Yrotation
    JOINT KneeLeft
    {
      OFFSET 2.045465 -39.205965 -0.728791
      CHANNELS 3 Zrotation Xrotation Yrotation
      JOINT AnkleLeft
      {
        OFFSET 15.450505 -38.638625 -4.509185
        CHANNELS 3 Zrotation Xrotation Yrotation
        JOINT FootLeft
        {
          OFFSET -4.344090 -1.403041 5.708033
          CHANNELS 3 Zrotation Xrotation Yrotation
          End Site
          {
            OFFSET 0 0 0
          }
        }
      }
    }
  }
  JOINT HipRight
  {
    OFFSET 4.604148 2.833664 -8.659699
    CHANNELS 3 Zrotation Xrotation Yrotation
    JOINT KneeRight
    {
      OFFSET 9.030060 -39.341929 -11.980674
      CHANNELS 3 Zrotation Xrotation Yrotation
      JOINT AnkleRight
      {
        OFFSET 9.779915 -34.543520 1.758224
        CHANNELS 3 Zrotation Xrotation Yrotation
        JOINT FootRight
        {
          OFFSET -3.656117 -7.445451 -2.610320
          CHANNELS 3 Zrotation Xrotation Yrotation
          End Site
          {
            OFFSET 0 0 0
          }
        }
      }
    }
  }
}
MOTION
Frames: 9
Frame Time: 0.033333
-32.709500 85.096570 329.025641 1.991323 0.706843 51.035565 -0.734103 0.588579 -51.010820 0.162871 -0.297186 0.063292 0.244737 0.357599 0.041205 0.000000 0.000000 0.000000 0.272910 -0.182021 -0.445050 3.364312 -7.481749 0.859249 -26.029028 2.832374 -9.059373 12.652481 -0.432715 7.274517 0.000000 0.000000 0.000000 0.000000 0.000000 0.000000 3.911720 11.966013 0.707517 -15.576058 34.979604 -1.982821 -11.885437 31.185721 -34.999897 -0.277731 -7.661055 16.873802 0.000000 0.000000 0.000000 0.000000 0.000000 0.000000 -3.407023 1.863837 -50.999308 2.534982 1.463795 0.149488 8.228264 11.288097 -2.962696 0.000000 0.000000 0.000000 -5.515725 1.319076 -50.818784 2.512608 2.743106 -0.193326 0.825695 -1.079871 0.250296 0.000000 0.000000 0.000000
-32.493141 85.364157 329.036710 2.450760 0.611994 51.570004 -0.643202 0.539517 -51.525965 0.122938 -0.443152 0.088791 -0.341853 1.468990 0.556739 0.000000 0.000000 0.000000 0.465233 -0.228842 -0.642864 1.877937 -9.861714 1.612550 -22.142053 9.235090 -5.922621 10.643124 1.809100 5.689613 0.000000 0.000000 0.000000 0.000000 0.000000 0.000000 3.466855 18.585782 1.856009 -18.781708 46.497729 -3.223364 -9.548192 24.097730 -42.584402 -8.418374 10.411278 19.842947 0.000000 0.000000 0.000000 0.000000 0.000000 0.000000 -3.972758 2.566782 -51.494949 3.033750 1.993595 0.285983 6.042595 8.321890 -2.895459 0.000000 0.000000 0.000000 -6.045565 1.915406 -51.248120 2.821780 2.917848 -0.258031 -0.000000 0.000000 0.000000 0.000000 0.000000 0.000000
-32.317238 85.216125 329.019303 2.781385 0.468308 51.674204 -0.487395 0.476143 -51.612592 0.171036 -0.310774 0.112044 -0.985396 2.523210 1.219874 0.000000 0.000000 0.000000 0.674653 -0.659280 -0.831436 0.495016 -12.457775 2.395907 -19.897909 14.199550 -4.317707 11.441976 3.720489 5.441350 0.000000 0.000000 0.000000 0.000000 0.000000 0.000000 0.785888 26.044388 4.363458 -19.310832 55.187024 -5.279810 -6.808632 18.599148 -49.623555 -10.176566 26.680768 31.477267 0.000000 0.000000 0.000000 0.000000 0.000000 0.000000 -4.688933 2.940926 -51.568398 3.553604 3.129568 0.518837 2.223480 2.895843 -1.927995 0.000000 0.000000 0.000000 -6.239359 2.383958 -51.266160 2.975467 2.927048 -0.306158 -0.000000 0.000000 0.000000 0.000000 0.000000 0.000000
-32.254897 84.607329 328.990617 2.872787 0.296610 52.656652 -0.117599 0.355104 -52.581905 0.230479 -0.104951 0.129726 -3.256802 2.819796 1.824048 0.000000 0.000000 0.000000 0.897278 -1.343946 -0.988777 -0.753608 -16.841002 3.503866 -20.474257 17.260484 -4.696828 11.422676 13.792342 6.425826 0.000000 0.000000 0.000000 0.000000 0.000000 0.000000 -3.880158 33.791386 8.385711 -15.958580 60.168266 -9.199657 -7.402597 17.802261 -59.372550 -15.275412 39.447922 54.632820 0.000000 0.000000 0.000000 0.000000 0.000000 0.000000 -4.906448 3.363059 -52.517722 3.951032 3.980202 0.762460 1.171118 0.582009 -0.649374 0.000000 0.000000 0.000000 -6.135421 2.587365 -52.257909 2.922479 2.991092 -0.275979 -0.058144 1.344513 -0.636408 0.000000 0.000000 0.000000
-32.224333 83.792402 329.030641 2.959712 0.265073 54.243927 0.286475 0.178201 -54.158625 0.239786 0.062593 0.144961 -4.145882 3.580443 2.548132 0.000000 0.000000 0.000000 0.988802 -2.119856 -1.104906 -1.063220 -18.469797 4.014847 -23.071260 20.735175 -3.820810 27.418450 30.059407 9.645112 0.000000 0.000000 0.000000 0.000000 0.000000 0.000000 -12.084815 39.568763 14.646391 -13.658789 61.590045 -10.695878 -6.272822 21.719448 -67.693820 -16.050092 36.690026 69.817825 0.000000 0.000000 0.000000 0.000000 0.000000 0.000000 -4.865321 3.835080 -54.076781 4.125530 4.468416 0.998830 1.529160 0.032596 0.448927 0.000000 0.000000 0.000000 -6.138334 2.672980 -53.899671 2.810402 3.136815 -0.209883 -0.024937 1.872408 -0.905084 0.000000 0.000000 0.000000
-32.113554 83.027109 329.149612 3.204572 0.330363 56.066823 0.623138 0.065409 -55.972875 0.203646 0.176363 0.159199 -4.260142 4.606642 3.317864 0.000000 0.000000 0.000000 0.904081 -2.847409 -1.183788 -0.499373 -17.954126 4.021881 -24.652337 20.789491 -3.409380 34.086263 39.030619 9.327917 0.000000 0.000000 0.000000 0.000000 0.000000 0.000000 -22.446242 42.477860 22.150428 -17.786518 60.215315 -7.311482 -2.863489 24.826688 -68.803394 -10.759571 31.279994 72.374897 0.000000 0.000000 0.000000 0.000000 0.000000 0.000000 -4.597981 4.596827 -55.863486 3.995309 4.109701 1.106302 1.754024 -0.643120 1.838676 0.000000 0.000000 0.000000 -6.413465 2.931981 -55.735427 2.821595 3.336634 -0.173044 0.317625 1.964252 -1.076414 0.000000 0.000000 0.000000
-31.921345 82.332936 329.214731 3.552202 0.592353 57.984132 0.720830 0.018263 -57.888283 0.172630 0.267148 0.169766 -3.405331 5.746798 3.992286 0.000000 0.000000 0.000000 0.827598 -3.224080 -1.260519 -1.722209 -18.127410 4.173411 -20.578848 20.467033 -3.694087 31.356937 34.039227 8.607467 0.000000 0.000000 0.000000 0.000000 0.000000 0.000000 -31.212810 43.217110 28.312514 -24.207962 56.393021 -3.838159 -3.557984 19.986760 -64.972750 -8.035850 26.951112 65.455202 0.000000 0.000000 0.000000 0.000000 0.000000 0.000000 -4.676776 5.365240 -57.747495 4.587272 5.089902 1.580310 -0.169878 -4.749820 3.375224 0.000000 0.000000 0.000000 -7.052994 3.133610 -57.692699 3.535522 4.322929 0.051787 -0.084187 0.937555 -1.179710 0.000000 0.000000 0.000000
-31.640107 81.845103 329.225290 4.006361 1.049068 59.026995 0.745519 0.033280 -58.938182 0.201655 0.378009 0.184550 -2.290344 6.116629 4.213207 0.000000 0.000000 0.000000 0.385627 -3.837852 -1.276877 0.416932 -13.919369 3.181306 -22.101321 22.227070 -0.808419 29.970865 24.880085 9.298989 0.000000 0.000000 0.000000 0.000000 0.000000 0.000000 -41.241943 41.449277 34.441591 -29.015577 46.885097 -3.408839 -0.872655 17.330048 -55.505033 -3.587343 20.710986 53.632614 0.000000 0.000000 0.000000 0.000000 0.000000 0.000000 -5.174253 6.024749 -58.759828 5.111865 5.223849 1.688557 1.763253 -1.997400 2.415557 0.000000 0.000000 0.000000 -7.954752 3.326272 -58.748835 3.496562 4.903026 0.155402 0.214376 -0.080839 -0.918816 0.000000 0.000000 0.000000
-31.337336 82.124400 329.219442 4.653551 1.683798 59.248782 0.656038 0.109670 -59.177516 0.135974 0.373815 0.199023 -0.632149 6.535473 4.350420 0.000000 0.000000 0.000000 -0.150895 -4.455835 -1.279613 5.844705 -4.909347 0.397005 -28.906676 21.511944 2.718452 26.166186 3.529799 9.740627 0.000000 0.000000 0.000000 0.000000 0.000000 0.000000 -51.966031 37.741256 40.130759 -30.004013 32.749600 -7.840171 -2.088124 18.686792 -47.212594 0.864269 11.211738 44.536395 0.000000 0.000000 0.000000 0.000000 0.000000 0.000000 -6.369967 6.551765 -58.940687 5.151791 4.347131 1.344743 7.394974 6.565317 -1.709347 0.000000 0.000000 0.000000 -8.558938 3.594319 -58.952601 2.993941 4.945721 0.239415 0.698517 -1.085284 -0.644561 0.000000 0.000000 0.000000
